<?xml version="1.0" encoding="utf-8"?>
<!-- Generator: Adobe Illustrator 23.0.3, SVG Export Plug-In . SVG Version: 6.00 Build 0)  -->
<svg version="1.1" id="Layer_1" xmlns="http://www.w3.org/2000/svg" xmlns:xlink="http://www.w3.org/1999/xlink" x="0px" y="0px"
	 viewBox="0 0 612 612" style="enable-background:new 0 0 612 612;" xml:space="preserve">
<style type="text/css">
	.st0{fill:#EE7649;stroke:#432F51;stroke-width:7.7362;stroke-linecap:round;stroke-linejoin:round;stroke-miterlimit:10;}
	.st1{fill:none;stroke:#432F51;stroke-width:7.7362;stroke-linecap:round;stroke-linejoin:round;stroke-miterlimit:10;}
	.st2{fill:#432F51;}
	.st3{fill:#432F51;stroke:#432F51;stroke-width:7.7362;stroke-linecap:round;stroke-linejoin:round;stroke-miterlimit:10;}
	.st4{fill:#F7BF52;stroke:#432F51;stroke-width:7.7362;stroke-linecap:round;stroke-linejoin:round;stroke-miterlimit:10;}
	.st5{fill:#FFFFFF;stroke:#432F51;stroke-width:7.7362;stroke-linecap:round;stroke-linejoin:round;stroke-miterlimit:10;}
</style>
<path class="st0" d="M300.15,291.98"/>
<path class="st1" d="M405.23,358.1c12.85-19.07,20.36-42.04,20.36-66.76"/>
<path class="st1" d="M186.41,291.34c0,66.05,53.54,119.59,119.59,119.59c10.85,0,21.37-1.45,31.37-4.16"/>
<g>
	<path class="st2" d="M199.97,264.04l-19.61-12.77c-1.81-1.18-2.27-2.79-1.36-4.76l1.66-3.56c0.88-1.9,2.33-2.6,4.4-2.23l18.61,3.33
		l-14.53-12.1c-1.61-1.34-2-2.91-1.12-4.8l1.66-3.56c0.91-1.96,2.45-2.65,4.51-2.02l22.4,6.79c2.31,0.7,3.01,2.36,2.01,4.53
		l-0.6,1.28c-0.91,1.96-2.48,2.61-4.55,1.96l-15.24-4.78l12.73,10.84c1.58,1.34,1.97,2.92,1.09,4.81l-0.72,1.55
		c-0.88,1.9-2.34,2.61-4.38,2.27l-16.49-2.77l13.47,8.59c1.83,1.17,2.34,2.79,1.43,4.75l-0.59,1.28
		C203.72,264.83,201.99,265.36,199.97,264.04z"/>
	<path class="st2" d="M228.23,223.03c-4.06,4.33-10.04,4.15-15.7-1.15c-5.67-5.31-6.24-11.2-2.16-15.56
		c1.98-2.11,5.1-3.32,7.68-2.39l-0.34-0.31c-1.61-1.45-1.45-3.14,0.07-4.76l0.73-0.78c1.55-1.66,3.3-1.72,4.96-0.16l12.22,11.45
		c1.66,1.56,1.72,3.3,0.16,4.96l-0.73,0.78c-1.5,1.6-3.16,1.91-4.65,0.46l-0.28-0.27C231.24,217.76,230.2,220.93,228.23,223.03
		L228.23,223.03z M224.23,209.35c-2.57-2.41-5.44-2.61-7.3-0.62c-1.84,1.96-1.46,4.85,1.09,7.25c2.59,2.42,5.48,2.63,7.35,0.63
		C227.23,214.63,226.83,211.79,224.23,209.35z"/>
	<path class="st2" d="M239.75,206.87L225.37,187c-1.33-1.84-1.06-3.57,0.79-4.9l0.9-0.65c1.84-1.33,3.57-1.06,4.9,0.79l14.38,19.88
		c1.33,1.84,1.06,3.57-0.79,4.9l-0.9,0.65C242.8,208.99,241.08,208.71,239.75,206.87z"/>
	<path class="st2" d="M262.48,197.49c-6.08,3.13-10.1,2.21-13.41-4.21l-3.8-7.38l-0.57,0.29c-1.49,0.77-2.84,0.14-3.69-1.51
		c-0.89-1.72-0.54-3.08,0.89-3.82l0.61-0.31l-0.59-1.15c-0.96-1.87-0.59-3.18,1.36-4.77l0.7-0.57c2.25-1.84,3.61-1.42,4.78,0.85
		l0.99,1.92l2.2-1.13c2.28-1.17,3.6-0.67,4.49,1.05c0.9,1.75,0.54,3.13-1.73,4.3l-2.2,1.13l3.52,6.85c1.32,2.57,2.75,3.16,4.82,2.27
		c1.61-0.63,2.97-0.39,3.8,1.15c0.89,1.65,0.71,3.23-1.15,4.45C263.15,197.12,262.82,197.32,262.48,197.49L262.48,197.49z"/>
	<path class="st2" d="M276.72,186.09l1.23-23.38c0.11-2.16,1.28-3.36,3.44-3.56l3.91-0.35c2.08-0.19,3.42,0.72,4.14,2.69l6.44,17.78
		l3.2-18.64c0.35-2.07,1.51-3.19,3.6-3.38l3.91-0.35c2.16-0.19,3.52,0.79,4.01,2.89l5.34,22.79c0.55,2.36-0.54,3.79-2.91,4.01
		l-1.4,0.12c-2.15,0.19-3.5-0.83-3.98-2.96l-3.5-15.59l-3,16.45c-0.37,2.04-1.54,3.17-3.62,3.35l-1.7,0.15
		c-2.08,0.19-3.43-0.71-4.16-2.66l-5.86-15.66l-0.69,15.96c-0.09,2.17-1.24,3.42-3.39,3.61l-1.4,0.12
		C277.91,189.73,276.59,188.5,276.72,186.09z"/>
	<path class="st2" d="M319.5,175.83c1.9-8.36,8.79-10.53,15-9.12c6.21,1.41,11.44,6.33,9.54,14.69c-1.92,8.45-8.74,10.57-15,9.15
		C322.85,189.15,317.58,184.28,319.5,175.83z M336.19,179.59c0.81-3.57-0.59-6.04-3.14-6.61c-2.52-0.57-4.89,1.02-5.7,4.61
		c-0.83,3.65,0.63,6.08,3.16,6.66C333.05,184.82,335.36,183.23,336.19,179.59z"/>
	<path class="st2" d="M370.75,193.06l-4.52,8.69c-1.05,2.02-2.71,2.54-4.73,1.5l-0.95-0.49c-2.02-1.05-2.54-2.71-1.5-4.73l4.15-7.98
		c1.61-3.1,1.26-5.02-1.09-6.24c-2.47-1.28-4.17-0.25-5.78,2.86l-4.07,7.83c-1.05,2.02-2.71,2.54-4.73,1.5l-0.95-0.49
		c-2.02-1.05-2.54-2.71-1.5-4.73l7.74-14.9c1.05-2.02,2.71-2.54,4.73-1.5l0.95,0.49c2.01,1.04,2.54,2.7,1.59,4.55
		c1.93-1.38,4.99-1.47,7.78-0.02C373.39,182.26,374.21,186.4,370.75,193.06z"/>
	<path class="st2" d="M381.62,219.7l-1.16-1.03c-1.45-1.29-1.77-2.63-1.51-4.6l1.4-10.2l-4.97,5.6c-1.51,1.7-3.25,1.81-4.95,0.3
		l-0.82-0.73c-1.7-1.51-1.81-3.25-0.3-4.95l16.28-18.36c1.51-1.7,3.25-1.81,4.95-0.3l0.82,0.73c1.7,1.51,1.81,3.25,0.3,4.95L382,202
		l9.2-2.39c1.9-0.5,3.29-0.33,4.73,0.95l1.08,0.96c2.13,1.89,1.79,4.09-1.05,4.69l-8.73,1.89l-1.07,9.99
		C385.67,220.89,383.74,221.58,381.62,219.7z"/>
	<path class="st2" d="M391.69,233.23c-4.32-6.27-3.24-13.05,2.92-17.29c6.04-4.16,12.93-2.77,17.1,3.29
		c3.94,5.72,3.29,11.55-1.78,15.75c-1.81,1.5-3.45,1.18-4.88-0.9l-7.24-10.51c-2.55,1.82-3.04,4.43-1.29,6.97
		c0.96,1.4,2.06,2.11,3.46,2.57c1.42,0.46,2.19,0.76,2.84,2.42l0.24,0.62c0.88,2.27-0.03,3.3-2.5,3.07
		C397.46,238.91,394.26,236.96,391.69,233.23L391.69,233.23z M407.62,222.32c-1.38-2-3.64-2.61-5.94-1.31l5,7.26
		C408.68,226.71,409.03,224.37,407.62,222.32z"/>
	<path class="st2" d="M397.28,250.99l4.71,0.16l15.7-14.24c1.93-1.75,3.83-1.27,4.73,1.15l0.52,1.38c0.72,1.92,0.24,3.45-1.36,4.73
		l-9.94,7.98l12.73-0.53c2.05-0.09,3.41,0.76,4.13,2.68l0.51,1.36c0.92,2.44-0.21,4.07-2.8,4.02l-26.54-0.44
		c-2.05-0.03-3.3-0.98-4-2.85l-0.55-1.46C394.22,252.49,395.09,250.91,397.28,250.99z"/>
</g>
<g>
	<circle class="st0" cx="306" cy="284.55" r="69.4"/>
	<path class="st3" d="M236.6,284.55c0,38.33,31.07,69.4,69.4,69.4s69.4-31.07,69.4-69.4"/>
	<g>
		<path class="st1" d="M263.16,229.94l-0.06,0.06c-16,12.6-26.33,32.1-26.5,54.01c-0.29,37.68,30.06,69.04,67.73,69.93
			c39.09,0.92,71.07-30.5,71.07-69.38c0-22.14-10.37-41.86-26.51-54.56v0c-12.02-11.36-30.82-11.36-42.84,0l0,0l-0.11-0.1
			C293.92,218.57,275.16,218.59,263.16,229.94z"/>
	</g>
	<circle class="st4" cx="236.6" cy="284.55" r="16.38"/>
	<circle class="st4" cx="375.4" cy="284.55" r="16.38"/>
	<path class="st4" d="M314.94,255.08l-8.94,6.83l-8.94-6.83c-24.07-18.39-59.41-2.28-60.43,28c-0.02,0.49-0.02,0.98-0.02,1.47v0
		c0,17.88,10.95,33.21,26.51,39.64v13.37c0,23.69,19.2,42.89,42.89,42.89h0c23.69,0,42.89-19.2,42.89-42.89v-13.37
		c15.56-6.44,26.51-21.76,26.51-39.64v0c0-0.49-0.01-0.99-0.02-1.47C374.35,252.8,339.01,236.68,314.94,255.08z"/>
	<path class="st1" d="M322.38,284.55c0,5.59,4.53,10.13,10.13,10.13c5.59,0,10.13-4.53,10.13-10.13"/>
	<g>
		<g>
			<path class="st2" d="M313.48,319.82c-2.14,0-3.87,1.73-3.87,3.87c0,2.14,1.73,3.87,3.87,3.87c2.14,0,3.87-1.73,3.87-3.87
				C317.34,321.56,315.61,319.82,313.48,319.82L313.48,319.82z"/>
		</g>
		<g>
			<path class="st2" d="M298.52,319.82c-2.14,0-3.87,1.73-3.87,3.87c0,2.14,1.73,3.87,3.87,3.87c2.14,0,3.87-1.73,3.87-3.87
				C302.39,321.56,300.66,319.82,298.52,319.82L298.52,319.82z"/>
		</g>
	</g>
	<path class="st1" d="M269.37,284.55c0,5.59,4.53,10.13,10.13,10.13s10.13-4.53,10.13-10.13"/>
	<path class="st1" d="M322.38,337.56c0,9.05-7.34,16.38-16.38,16.38"/>
</g>
<g>
	<g>
		<g>
			<path class="st4" d="M381.82,391.97l-3.93,5.22c-2.28,3.03,0.15,7.32,3.92,6.92l10.98-1.16l1.16-10.98
				c0.4-3.77-3.89-6.2-6.92-3.92L381.82,391.97z"/>
		</g>
		<g>
			<polygon class="st4" points="360.04,370.31 380.95,368.1 392.5,379.66 371.6,381.86 			"/>
			<polygon class="st4" points="371.6,381.86 392.5,379.66 403.48,390.64 382.58,392.84 			"/>
			<polygon class="st4" points="360.04,370.31 357.83,391.21 369.39,402.77 371.6,381.86 			"/>
			<path class="st4" d="M348.51,358.78l4.65-0.49c10.28-1.09,20.5,2.53,27.81,9.84l0,0l-20.91,2.21L348.51,358.78z"/>
			<path class="st4" d="M348.51,358.78l-0.49,4.65c-1.09,10.28,2.53,20.5,9.84,27.81l0,0l2.21-20.91L348.51,358.78z"/>
			<polygon class="st4" points="371.6,381.86 369.39,402.77 380.37,413.75 382.58,392.84 			"/>
			<path class="st5" d="M382.58,392.84"/>
			<path class="st1" d="M320.67,347.25c10.44,0,20.46,4.14,27.85,11.53l0,0l11.53,11.53l22.54,22.54"/>
		</g>
	</g>
	<line class="st4" x1="360.04" y1="370.31" x2="391.16" y2="367.07"/>
	<line class="st4" x1="360.09" y1="370.26" x2="356.85" y2="401.38"/>
	<line class="st4" x1="371.6" y1="381.86" x2="402.72" y2="378.63"/>
	<line class="st4" x1="371.65" y1="381.81" x2="368.41" y2="412.94"/>
</g>
<g>
	<g>
		<g>
			<path class="st2" d="M79.86,307.15l20.95-2.58c2.06-0.25,3.32,0.73,3.57,2.79l0.83,6.76c1.13,9.21-2.19,12.11-6.03,12.59
				c-3.44,0.42-5.72-1.34-6.56-3.46c-0.26,2.44-1.89,5.26-5.53,5.71c-3.88,0.48-7.95-1.38-9.12-10.96l-0.9-7.28
				C76.82,308.66,77.8,307.4,79.86,307.15z M87.17,321.02c1.76-0.22,2.64-1.23,2.26-4.29l-0.38-3.11l-5.45,0.67l0.38,3.08
				C84.35,320.37,85.51,321.22,87.17,321.02z M93.95,315.6c0.34,2.77,1.49,3.59,3.18,3.38c1.65-0.2,2.38-1.19,2.03-4.06l-0.31-2.5
				l-5.22,0.64L93.95,315.6L93.95,315.6z"/>
			<path class="st2" d="M90.98,332.58c6.87-1.75,11.68,0.7,13.03,5.98c0.65,2.56,0.05,5.55-1.93,7.08l0.4-0.11
				c1.91-0.53,3.13,0.43,3.63,2.39l0.24,0.95c0.51,2.01-0.3,3.38-2.31,3.9l-14.82,3.78c-2.01,0.51-3.38-0.3-3.9-2.31l-0.24-0.95
				c-0.49-1.94,0.08-3.37,1.93-3.81l0.34-0.08c-2.4-0.4-4.33-2.76-4.98-5.31C81.04,338.85,84.12,334.34,90.98,332.58z M94.87,347.74
				c3.11-0.79,4.68-2.9,4.06-5.31c-0.61-2.38-3.02-3.51-6.11-2.72c-3.13,0.8-4.71,2.92-4.09,5.35
				C89.34,347.46,91.73,348.54,94.87,347.74z"/>
			<path class="st2" d="M91.36,362.5l21.09-7.54c1.96-0.7,3.4-0.02,4.09,1.94l0.34,0.96c0.7,1.96,0.02,3.4-1.94,4.09l-21.09,7.54
				c-1.96,0.7-3.4,0.02-4.09-1.94l-0.34-0.96C88.72,364.64,89.4,363.2,91.36,362.5z"/>
			<path class="st2" d="M96.23,384.39c-2.29-4.91-0.11-9.92,6.31-12.91c6.43-3,11.61-1.48,13.92,3.46c1.12,2.39,1.08,5.45-0.58,7.32
				l0.38-0.18c1.77-0.87,3.15-0.16,4.01,1.67l0.41,0.89c0.88,1.88,0.34,3.38-1.55,4.26l-13.86,6.47c-1.88,0.88-3.38,0.33-4.26-1.55
				l-0.41-0.89c-0.84-1.81-0.55-3.33,1.19-4.1l0.32-0.14C99.68,388.73,97.34,386.77,96.23,384.39L96.23,384.39z M109.18,385.65
				c2.91-1.36,4.06-3.72,3.01-5.98c-1.04-2.22-3.61-2.89-6.51-1.54c-2.93,1.37-4.09,3.75-3.03,6.01
				C103.69,386.39,106.24,387.02,109.18,385.65z"/>
			<path class="st2" d="M127.72,415.03l-7.56,4.77c-1.76,1.11-3.31,0.76-4.42-1l-0.52-0.83c-1.11-1.75-0.76-3.31,1-4.42l6.94-4.38
				c2.69-1.7,3.3-3.38,2.01-5.42c-1.36-2.15-3.17-2.12-5.87-0.41l-6.81,4.3c-1.76,1.11-3.31,0.76-4.42-1l-0.52-0.83
				c-1.11-1.76-0.76-3.31,1-4.42l12.96-8.18c1.76-1.11,3.31-0.76,4.42,1l0.52,0.83c1.1,1.75,0.76,3.3-0.84,4.32
				c2.16-0.2,4.61,1.14,6.14,3.57C134.77,407.73,133.51,411.37,127.72,415.03z"/>
			<path class="st2" d="M129.45,419.58c5.22-4.25,11.66-3.33,15.66,1.59c3.09,3.8,3.77,7.62,2.22,10.7
				c-0.92,1.84-2.44,2.2-4.01,0.76l-0.37-0.34c-1.28-1.17-1.32-2.01-1.13-3.49c0.18-1.27-0.12-2.49-1.03-3.61
				c-1.57-1.93-4.22-1.9-6.68,0.11c-2.46,2-3.03,4.58-1.46,6.51c0.9,1.1,2.05,1.57,3.3,1.74c1.52,0.22,2.28,0.33,3.18,1.81
				l0.23,0.38c1.13,1.88,0.47,3.27-1.46,3.82c-3.32,0.94-7-0.54-10.08-4.33C123.83,430.34,124.2,423.84,129.45,419.58z"/>
			<path class="st2" d="M146.1,455.12c-4.99-4.84-5.23-11.1-0.48-16c4.66-4.8,11.07-4.79,15.89-0.12c4.55,4.41,5.02,9.75,1.23,14.41
				c-1.35,1.67-2.87,1.68-4.53,0.07l-8.36-8.11c-1.96,2.09-1.93,4.51,0.09,6.47c1.11,1.08,2.22,1.52,3.56,1.68
				c1.36,0.16,2.1,0.28,2.97,1.65l0.33,0.51c1.2,1.88,0.56,2.96-1.68,3.2C152.29,459.16,149.07,457.99,146.1,455.12L146.1,455.12z
				 M158.41,442.49c-1.59-1.54-3.72-1.69-5.55-0.11l5.78,5.61C160.14,446.23,160.04,444.08,158.41,442.49z"/>
			<path class="st2" d="M164.86,457.45c4.27-5.66,9.56-6.75,13.91-3.47c2.11,1.59,3.52,4.31,2.91,6.74l4.34-5.75
				c1.25-1.66,2.83-1.88,4.49-0.63l0.78,0.59c1.66,1.25,1.88,2.83,0.63,4.49l-13.47,17.85c-1.25,1.66-2.83,1.88-4.49,0.63
				l-0.78-0.59c-1.59-1.2-2-2.66-1.08-3.88l0.43-0.57c-2.12,1.18-5.11,0.55-7.2-1.04C161,468.55,160.59,463.11,164.86,457.45z
				 M177.36,466.86c1.93-2.56,1.85-5.18-0.14-6.69c-1.96-1.48-4.55-0.86-6.47,1.7c-1.95,2.58-1.86,5.23,0.14,6.73
				C172.88,470.1,175.4,469.45,177.36,466.86z"/>
			<path class="st2" d="M200.37,490.23l-0.33,0.64c-0.69,1.36-2.18,1.64-3.96,0.73l-0.87-0.44c-1.85-0.94-2.35-2.45-1.41-4.31
				l10.12-19.94c0.94-1.85,2.45-2.35,4.31-1.41l0.87,0.44c1.85,0.94,2.35,2.46,1.41,4.31l-3.26,6.42c1.91-1.59,4.96-1.53,7.32-0.34
				c4.85,2.46,6.22,7.7,3.01,14.03c-3.2,6.31-8.29,8.33-13.1,5.89C202.12,495.06,200.24,492.66,200.37,490.23z M211.03,487.02
				c1.44-2.84,0.87-5.45-1.34-6.57c-2.21-1.12-4.59-0.06-6.05,2.82c-1.48,2.91-0.93,5.46,1.3,6.59
				C207.16,490.98,209.57,489.89,211.03,487.02z"/>
			<path class="st2" d="M228.6,506.42c-6.54-2.35-9.35-7.95-7.04-14.38c2.26-6.29,8.11-8.93,14.42-6.67
				c5.96,2.14,8.59,6.81,7.07,12.62c-0.54,2.08-1.92,2.71-4.1,1.93l-10.96-3.93c-0.92,2.71,0.11,4.9,2.75,5.85
				c1.46,0.52,2.65,0.47,3.93,0.06c1.3-0.42,2.03-0.61,3.39,0.28l0.51,0.33c1.87,1.21,1.73,2.46-0.21,3.6
				C235.9,507.55,232.48,507.81,228.6,506.42L228.6,506.42z M234.59,489.85c-2.08-0.75-4.09,0-5.1,2.19l7.58,2.72
				C237.71,492.53,236.73,490.61,234.59,489.85z"/>
			<path class="st2" d="M246.66,500.77c1.47-6.52,6.96-9.86,13.5-8.38c6.18,1.4,9.36,5.71,8.56,11.66
				c-0.29,2.13-1.58,2.93-3.83,2.42l-11.36-2.57c-0.58,2.8,0.71,4.85,3.45,5.47c1.51,0.34,2.69,0.14,3.91-0.42
				c1.24-0.57,1.94-0.85,3.4-0.14l0.54,0.27c2,0.98,2.02,2.23,0.23,3.6c-2.26,1.73-5.62,2.4-9.65,1.49
				C248.62,512.65,245.15,507.43,246.66,500.77z M259.33,497c-2.16-0.49-4.06,0.5-4.79,2.8l7.85,1.77
				C262.75,499.29,261.54,497.51,259.33,497z"/>
			<path class="st2" d="M288.14,500.19l-0.12,0.53c-0.44,1.9-1.64,2.32-3.57,2.54c-2.22,0.24-3.61,1.72-4.01,5.05l-0.78,6.46
				c-0.25,2.06-1.5,3.04-3.56,2.79l-0.97-0.12c-2.06-0.25-3.04-1.5-2.79-3.56l1.84-15.22c0.25-2.06,1.5-3.04,3.56-2.8l0.97,0.12
				c2.06,0.25,3.07,1.27,2.84,3.23c0.76-1.38,2.31-2.78,4.7-2.49C288.03,496.94,288.63,497.99,288.14,500.19z"/>
			<path class="st2" d="M291.21,516.61c-1.6-1.63-1.55-3.71,1.17-4.07l0.8-0.1c1.54-0.2,2.25,0.38,3.45,1.47
				c0.98,0.89,2.22,1.26,3.39,1.29c1.63,0.04,2.7-0.61,2.72-1.67c0.1-3.66-12.18-1.7-11.97-9.71c0.11-4.21,4.16-6.56,9.82-6.41
				c3.18,0.08,6.22,0.99,8.02,2.77c1.62,1.59,1.41,3.6-1.07,3.98l-0.62,0.1c-1.82,0.28-2.53-0.69-3.42-1.3
				c-1.01-0.69-1.96-1.01-2.88-1.03c-1.54-0.04-2.56,0.53-2.58,1.59c-0.09,3.61,12.39,0.99,12.17,9.25
				c-0.12,4.47-4.1,7.09-10.31,6.93C296.26,519.58,293.07,518.5,291.21,516.61z"/>
			<path class="st2" d="M313.42,520.36l1.92-6.26c0.55-1.81,1.7-2.66,3.54-2.76l0.47-0.02c3.02-0.16,3.53,1.41,2.47,3.69l-3.01,6.47
				c-0.75,1.62-1.65,2.35-3.41,2.45l-0.13,0.01C313.38,524.02,312.72,522.63,313.42,520.36z"/>
			<path class="st2" d="M338.35,508.53l-1.27-7.47l-0.58,0.1c-1.5,0.26-2.51-0.66-2.79-2.33c-0.3-1.74,0.38-2.83,1.83-3.08
				l0.62-0.11l-0.2-1.17c-0.32-1.89,0.36-2.93,2.49-3.77l0.77-0.3c2.46-0.98,3.53-0.24,3.92,2.05l0.33,1.95l2.22-0.38
				c2.3-0.39,3.32,0.41,3.62,2.15c0.3,1.77-0.39,2.87-2.69,3.27l-2.22,0.38l1.18,6.93c0.44,2.6,1.52,3.51,3.57,3.3
				c1.58-0.1,2.69,0.48,3,2.05c0.32,1.68-0.27,3.01-2.23,3.56c-0.37,0.1-0.71,0.19-1.05,0.24
				C342.71,516.94,339.46,515.04,338.35,508.53z"/>
			<path class="st2" d="M350.31,486.93c-0.56-2.29,0.81-3.89,3.15-4.46c2.13-0.52,4.3,0.21,4.86,2.5c0.57,2.31-1.03,3.94-3.15,4.46
				C352.83,490,350.88,489.25,350.31,486.93z M356.54,510.65l-3.65-14.89c-0.49-2.02,0.33-3.38,2.33-3.87l0.98-0.24
				c2.01-0.49,3.36,0.34,3.86,2.35l3.65,14.89c0.49,2.02-0.33,3.38-2.33,3.87l-0.98,0.24C358.39,513.5,357.03,512.67,356.54,510.65z
				"/>
			<path class="st2" d="M372.12,514.09l-7.33-21.13c-0.68-1.96,0.02-3.4,1.98-4.08l0.92-0.32c1.89-0.65,3.33-0.18,3.83,1.26
				l0.24,0.68c0.34-2.15,2.34-4.47,4.9-5.36c5.03-1.75,9.81,0.76,12.16,7.55c2.36,6.8,0.19,11.76-4.87,13.51
				c-2.56,0.89-5.58,0.45-7.21-1.34l2.36,6.8c0.68,1.96-0.02,3.4-1.98,4.08l-0.92,0.32C374.24,516.75,372.81,516.05,372.12,514.09z
				 M381.88,495.14c-1.06-3.05-3.3-4.46-5.65-3.64c-2.36,0.82-3.25,3.27-2.18,6.36c1.06,3.05,3.27,4.42,5.61,3.61
				C382,500.66,382.93,498.15,381.88,495.14z"/>
			<path class="st2" d="M397.33,498c-2.17-0.71-3.09-2.58-0.84-4.15l0.66-0.46c1.27-0.89,2.18-0.7,3.74-0.29
				c1.28,0.33,2.55,0.1,3.6-0.42c1.47-0.71,2.11-1.78,1.65-2.73c-1.6-3.29-11.59,4.1-15.09-3.11c-1.84-3.78,0.67-7.74,5.76-10.21
				c2.86-1.39,5.97-1.98,8.39-1.24c2.17,0.67,2.9,2.54,0.89,4.02l-0.51,0.37c-1.48,1.09-2.57,0.55-3.64,0.42
				c-1.21-0.15-2.2,0.01-3.03,0.41c-1.39,0.67-2.02,1.65-1.56,2.6c1.58,3.25,11.45-4.83,15.06,2.6c1.96,4.02-0.37,8.18-5.96,10.9
				C403.18,498.31,399.84,498.82,397.33,498z"/>
			<path class="st2" d="M426.38,490.14l-0.74-4.24l-15.68-11.34c-1.93-1.4-1.86-3.18,0.13-4.44l1.14-0.72
				c1.58-1,3.03-0.87,4.48,0.32l9,7.38l-2.87-11.27c-0.46-1.82,0.04-3.19,1.62-4.19l1.12-0.71c2.01-1.28,3.67-0.58,4.12,1.74
				l4.6,23.79c0.36,1.84-0.25,3.13-1.79,4.11l-1.2,0.76C428.3,492.59,426.73,492.11,426.38,490.14z"/>
			<path class="st2" d="M455.51,459.99l0.48,0.53c1.03,1.13,0.75,2.62-0.73,3.96l-0.72,0.66c-1.54,1.39-3.13,1.32-4.52-0.22
				l-15.02-16.56c-1.4-1.54-1.32-3.13,0.22-4.52l0.72-0.66c1.54-1.4,3.13-1.32,4.52,0.22l4.83,5.33c-0.81-2.35,0.34-5.18,2.29-6.96
				c4.02-3.65,9.41-3.06,14.17,2.19c4.76,5.24,4.83,10.71,0.83,14.33C460.64,460.07,457.73,460.98,455.51,459.99z M456.3,448.89
				c-2.14-2.36-4.78-2.75-6.62-1.09c-1.83,1.67-1.69,4.27,0.48,6.66c2.19,2.42,4.77,2.81,6.62,1.13
				C458.63,453.92,458.46,451.28,456.3,448.89z"/>
			<path class="st2" d="M468.53,424.6l0.36,0.4c1.31,1.45,0.97,2.67,0.03,4.38c-1.07,1.95-0.66,3.94,1.84,6.19l4.85,4.34
				c1.55,1.38,1.64,2.98,0.25,4.52l-0.65,0.73c-1.38,1.55-2.98,1.64-4.52,0.25l-11.42-10.22c-1.55-1.38-1.64-2.98-0.25-4.52
				l0.65-0.73c1.38-1.55,2.8-1.79,4.27-0.48c-0.69-1.41-0.96-3.48,0.65-5.28C465.81,422.83,467.02,422.94,468.53,424.6z"/>
			<path class="st2" d="M492.31,424.7c-4.09,5.61-10.26,6.74-15.78,2.72c-5.41-3.94-6.29-10.29-2.35-15.71
				c3.73-5.12,8.95-6.33,14.1-3.24c1.84,1.11,2.06,2.61,0.7,4.48l-6.86,9.42c2.34,1.65,4.74,1.27,6.39-1
				c0.91-1.25,1.2-2.41,1.16-3.76c-0.03-1.37-0.01-2.12,1.22-3.18l0.46-0.39c1.69-1.45,2.85-0.97,3.4,1.22
				C495.45,418.01,494.74,421.36,492.31,424.7L492.31,424.7z M478.09,414.29c-1.3,1.79-1.15,3.92,0.67,5.51l4.74-6.51
				C481.54,412.05,479.43,412.45,478.09,414.29z"/>
			<path class="st2" d="M502.42,404.65l-16.5-1.85c-2.36-0.27-3.19-1.87-2.1-3.96l0.57-1.11c0.87-1.67,2.15-2.3,4.03-1.98
				l10.84,1.85l-7.8-7.67c-1.34-1.32-1.61-2.75-0.76-4.4l0.02-0.03c0.85-1.64,2.18-2.24,4.03-1.9l10.77,1.95l-7.76-7.78
				c-1.34-1.34-1.56-2.76-0.7-4.44l0.6-1.15c1.09-2.1,2.9-2.32,4.47-0.54l10.96,12.47c1.21,1.38,1.4,2.79,0.56,4.41l-0.72,1.38
				c-0.87,1.67-2.19,2.3-4.05,1.94l-9.62-1.88l7.07,6.79c1.37,1.32,1.61,2.76,0.74,4.43l-0.71,1.37
				C505.51,404.16,504.25,404.85,502.42,404.65z"/>
			<path class="st2" d="M523.93,363.58c-2.24,6.57-7.8,9.47-14.26,7.27c-6.33-2.16-9.06-7.96-6.9-14.31c2.04-6,6.67-8.7,12.5-7.27
				c2.09,0.51,2.74,1.88,2,4.07l-3.76,11.02c2.72,0.88,4.9-0.19,5.81-2.85c0.5-1.46,0.43-2.66,0-3.93
				c-0.44-1.29-0.64-2.02,0.22-3.39l0.32-0.51c1.18-1.88,2.44-1.77,3.61,0.16C524.95,356.26,525.26,359.67,523.93,363.58
				L523.93,363.58z M507.26,357.86c-0.71,2.1,0.06,4.09,2.27,5.06l2.6-7.62C509.9,354.69,508,355.71,507.26,357.86z"/>
			<path class="st2" d="M513.46,329.55l0.51,0.18c1.85,0.64,2.14,1.88,2.15,3.82c0,2.23,1.33,3.77,4.6,4.53l6.34,1.46
				c2.02,0.47,2.87,1.82,2.4,3.84l-0.22,0.95c-0.47,2.02-1.82,2.87-3.84,2.4l-14.94-3.43c-2.02-0.46-2.87-1.82-2.4-3.84l0.22-0.95
				c0.46-2.02,1.59-2.92,3.51-2.48c-1.29-0.9-2.52-2.59-1.98-4.93C510.22,329.31,511.33,328.83,513.46,329.55z"/>
			<path class="st2" d="M530.11,328.21c-1.78,1.42-3.85,1.15-3.92-1.58l-0.02-0.81c-0.04-1.55,0.62-2.2,1.82-3.28
				c0.98-0.88,1.48-2.07,1.63-3.23c0.21-1.62-0.32-2.75-1.37-2.88c-3.63-0.48-2.96,11.93-10.9,10.89
				c-4.17-0.55-6.09-4.81-5.35-10.43c0.41-3.15,1.64-6.08,3.59-7.69c1.75-1.44,3.72-1.02,3.84,1.47l0.03,0.63
				c0.09,1.84-0.95,2.45-1.65,3.27c-0.79,0.93-1.21,1.84-1.33,2.75c-0.2,1.53,0.26,2.6,1.31,2.73c3.58,0.47,2.27-12.21,10.46-11.14
				c4.44,0.58,6.62,4.81,5.81,10.98C533.6,323.5,532.18,326.57,530.11,328.21z"/>
		</g>
	</g>
	<path class="st1" d="M522,289.92c0-119.29-96.71-216-216-216s-216,96.71-216,216"/>
</g>
</svg>
